# xmcd
#
# Track frame offsets:
#	150
#	11102
#	23347
#	36122
#	49711
#	67786
#	79265
#	90480
#	100776
#	116618
#	126012
#	142693
#	155452
#	166276
#	180552
#	194365
#	207921
#	220335
#
# Disc length: 3178 seconds
#
# Revision: 0
# Processed by: cddbd v1.5.2PL0 Copyright (c) Steve Scherf et al.
# Submitted via: EasyCDDAExtractor 16.0.8.2
#
DISCID=e10c6812
DTITLE=Συλλογικός δίσκος - Oldies but goodies 01
DYEAR=2010
DGENRE=Ποικίλη
TTITLE0=The Charms - Το τρελλοκόριτσο
TTITLE1=The Idols - Στο φεγγάρι εμείς οι δύο
TTITLE2=The Persons - Είσαι το κορίτσι που αγαπώ
TTITLE3=Ελπίδα - Δεν τον είδα
TTITLE4=Ρούσος Ντέμης-We Five - Black is black
TTITLE5=Χριστίνα-The Sounds - Θέλω να γελώ
TTITLE6=The Blue Rocks - Παντοτινά οι δυό μαζί
TTITLE7=Κανελλίδου Αλέκα - Φέρε μου χαρά
TTITLE8=Dave Caroll-Sing Sing Four - Venus
TTITLE9=The Idols - Ain't no sunshine
TTITLE10=Up Tight - Με ξέχασες
TTITLE11=Γιοβάννα - Ήταν
TTITLE12=The Forminx - Until the end
TTITLE13=Sergio Endrigo - Tereza
TTITLE14=The Charms - It' s my life
TTITLE15=Κουρούκλη Ζωή - Πάντα στη ζωή μου
TTITLE16=The M.G.C.-Instrumental - Miss Marple's theme
TTITLE17=Τζορντανέλλι Λάκης - Μη με ρωτάς γιατί
EXTD=
EXTT0=
EXTT1=
EXTT2=
EXTT3=
EXTT4=
EXTT5=
EXTT6=
EXTT7=
EXTT8=
EXTT9=
EXTT10=
EXTT11=
EXTT12=
EXTT13=
EXTT14=
EXTT15=
EXTT16=
EXTT17=
PLAYORDER=
